# xmcd
#
# Track frame offsets:
#	225
#	13747
#	18672
#	28710
#	30322
#	42585
#	44985
#	58185
#	64785
#	76485
#	78397
#	91935
#	95572
#	113160
#	123622
#	138097
#	147210
#	156535
#	159472
#	172397
#	174210
#	189060
#	189810
#	202972
#	205035
#
# Disc length: 2925 seconds
#
# Revision: 1
# Processed by: cddbd v1.5.2PL0 Copyright (c) Steve Scherf et al.
# Submitted via: EZCDAudioConverter 8.0.7.1
#
DISCID=590b6a19
DTITLE=Doc Watson and David Holt - An Evening With Doc Watson and David Holt
DYEAR=1984
DGENRE=Country
TTITLE0=Way Down Town
TTITLE1=Fiddle Tunes On Guitar
TTITLE2=Soldier's Joy/Ragtime Annie
TTITLE3=Intro
TTITLE4=I'll Rise When Th Rooster Crows
TTITLE5=Courtin' Songs
TTITLE6=Shady Grove
TTITLE7=Hit By A Brick
TTITLE8=Little Log Cabin
TTITLE9=Like A Version
TTITLE10=Train That Carried My Girl From Town
TTITLE11=Ever Been Lazy?
TTITLE12=Life Gets Tee-Jus, Don't It?
TTITLE13=The Real Tom Dula
TTITLE14=Ton Dula
TTITLE15=Learning The Harmonica
TTITLE16=Rain Crow Bill
TTITLE17=The Story Of John Henry
TTITLE18=John Henry
TTITLE19=Intro
TTITLE20=Rovin' On A Winter's Night
TTITLE21=Intro
TTITLE22=Free Little Bird
TTITLE23=Intro
TTITLE24=Talk About Sufferin'
EXTD=
EXTT0=
EXTT1=
EXTT2=
EXTT3=
EXTT4=
EXTT5=
EXTT6=
EXTT7=
EXTT8=
EXTT9=
EXTT10=
EXTT11=
EXTT12=
EXTT13=
EXTT14=
EXTT15=
EXTT16=
EXTT17=
EXTT18=
EXTT19=
EXTT20=
EXTT21=
EXTT22=
EXTT23=
EXTT24=
PLAYORDER=
